<svg width="649.414" height="89.404" viewBox="0 0 649.414 89.404" xmlns="http://www.w3.org/2000/svg"><g id="svgGroup" stroke-linecap="round" fill-rule="evenodd" font-size="9pt" stroke="#000" stroke-width="0.25mm" fill="none" style="stroke:#000;stroke-width:0.25mm;fill:none"><path d="M 166.26 70.361 L 166.211 0 L 173.682 0 L 173.535 27.881 A 21.558 21.558 0 0 1 175.022 25.542 Q 175.872 24.388 176.794 23.52 A 11.759 11.759 0 0 1 177.417 22.974 A 12.182 12.182 0 0 1 180.776 21.052 A 15.357 15.357 0 0 1 182.593 20.483 A 22.247 22.247 0 0 1 185.061 20.03 Q 186.368 19.859 187.887 19.785 A 50.964 50.964 0 0 1 190.381 19.727 Q 194.81 19.727 197.979 20.748 A 13.556 13.556 0 0 1 200.83 22.021 A 12.142 12.142 0 0 1 205.518 27.241 A 16.148 16.148 0 0 1 206.274 29.077 A 25.65 25.65 0 0 1 207.239 32.899 Q 207.595 34.899 207.763 37.257 A 62.981 62.981 0 0 1 207.91 41.699 L 207.91 70.361 L 200.391 70.361 L 200.391 40.234 Q 200.391 36.797 199.852 34.275 A 14.718 14.718 0 0 0 199.17 31.958 A 9.388 9.388 0 0 0 197.713 29.426 A 7.898 7.898 0 0 0 195.288 27.441 Q 193.269 26.367 190.223 26.108 A 24.087 24.087 0 0 0 188.184 26.025 A 23.077 23.077 0 0 0 184.146 26.355 Q 181.956 26.744 180.244 27.596 A 10.305 10.305 0 0 0 177.295 29.761 Q 173.779 33.496 173.779 41.211 L 173.779 70.361 L 166.26 70.361 Z M 153.271 36.133 L 145.605 36.133 A 21.203 21.203 0 0 0 145.292 33.76 Q 144.884 31.667 144.067 30.225 A 7.31 7.31 0 0 0 140.582 27.109 A 9.131 9.131 0 0 0 140.332 27.002 Q 137.842 25.977 133.838 25.977 Q 128.027 25.977 124.829 27.783 A 9.26 9.26 0 0 0 121.347 31.302 A 13.337 13.337 0 0 0 120.239 33.813 Q 118.848 38.037 118.848 45.654 A 86.515 86.515 0 0 0 118.948 49.975 Q 119.15 53.989 119.755 56.712 A 19.33 19.33 0 0 0 120.117 58.105 A 11.977 11.977 0 0 0 121.282 60.799 A 8.336 8.336 0 0 0 124.609 63.989 Q 127.832 65.674 134.082 65.674 A 26.183 26.183 0 0 0 136.656 65.555 Q 137.912 65.431 138.967 65.176 A 11.111 11.111 0 0 0 140.674 64.624 A 7.454 7.454 0 0 0 143.031 63.084 A 6.926 6.926 0 0 0 144.336 61.304 A 9.872 9.872 0 0 0 145.105 59.236 Q 145.368 58.217 145.495 57.011 A 22.042 22.042 0 0 0 145.605 55.273 L 153.271 55.273 A 29.564 29.564 0 0 1 153.018 59.016 Q 152.559 62.385 151.27 64.722 A 11.097 11.097 0 0 1 146.494 69.279 A 14.524 14.524 0 0 1 145.117 69.897 A 20.643 20.643 0 0 1 141.624 70.886 Q 139.831 71.24 137.714 71.4 A 49.488 49.488 0 0 1 133.984 71.533 Q 128.181 71.533 124.013 70.256 A 18.905 18.905 0 0 1 120.728 68.921 A 15.175 15.175 0 0 1 114.03 61.847 A 19.567 19.567 0 0 1 113.501 60.645 Q 111.904 56.661 111.43 50.817 A 65.253 65.253 0 0 1 111.23 45.557 A 62.038 62.038 0 0 1 111.478 39.836 Q 111.738 37.027 112.275 34.663 A 25.782 25.782 0 0 1 113.525 30.615 A 16.882 16.882 0 0 1 116.429 25.827 A 14.706 14.706 0 0 1 120.776 22.437 Q 124.428 20.548 129.896 20.051 A 45.768 45.768 0 0 1 134.033 19.873 Q 139.792 19.873 143.793 21.285 A 14.62 14.62 0 0 1 148.413 23.853 Q 153.125 27.832 153.271 36.133 Z M 80.762 41.455 L 91.016 41.455 L 91.016 34.863 Q 91.016 32.502 90.36 30.835 A 6.634 6.634 0 0 0 89.795 29.712 A 6.247 6.247 0 0 0 87.616 27.652 A 8.918 8.918 0 0 0 85.938 26.904 A 14.364 14.364 0 0 0 83.917 26.404 Q 82.854 26.215 81.601 26.12 A 35.885 35.885 0 0 0 78.906 26.025 A 41.006 41.006 0 0 0 76.245 26.106 Q 73.511 26.285 71.631 26.855 Q 68.896 27.686 67.627 29.517 A 6.615 6.615 0 0 0 66.695 31.571 Q 66.452 32.464 66.384 33.522 A 13.252 13.252 0 0 0 66.357 34.375 L 59.57 34.375 A 18.129 18.129 0 0 1 60.033 30.144 A 11.262 11.262 0 0 1 64.307 23.486 Q 68.85 20.114 78.11 19.977 A 53.607 53.607 0 0 1 78.906 19.971 Q 88.364 19.971 93.179 23.24 A 12.388 12.388 0 0 1 93.726 23.633 A 11.701 11.701 0 0 1 98.017 30.339 Q 98.503 32.283 98.533 34.601 A 23.745 23.745 0 0 1 98.535 34.912 L 98.535 60.107 Q 98.535 62.328 98.956 63.49 A 2.838 2.838 0 0 0 99.292 64.16 Q 100.029 65.206 102.085 65.234 A 8.376 8.376 0 0 0 102.197 65.234 A 21.105 21.105 0 0 0 102.567 65.231 Q 103.088 65.222 103.418 65.186 L 103.418 71.143 A 10.391 10.391 0 0 1 102.79 71.331 Q 102.292 71.463 101.88 71.509 A 8.762 8.762 0 0 1 101.515 71.541 Q 101.103 71.569 100.541 71.578 A 34.435 34.435 0 0 1 100 71.582 A 10.844 10.844 0 0 1 97.534 71.317 A 7.434 7.434 0 0 1 94.263 69.678 A 6.262 6.262 0 0 1 92.103 65.129 A 8.595 8.595 0 0 1 92.09 64.648 A 14.412 14.412 0 0 1 87.679 68.557 A 18.748 18.748 0 0 1 85.229 69.751 A 23.902 23.902 0 0 1 79.833 71.192 A 32.111 32.111 0 0 1 75.049 71.533 Q 69.251 71.533 65.333 69.617 A 13.553 13.553 0 0 1 62.354 67.651 A 12.63 12.63 0 0 1 58.271 60.442 A 18.987 18.987 0 0 1 57.91 56.641 A 21.65 21.65 0 0 1 58.181 53.107 Q 58.505 51.154 59.215 49.57 A 11.037 11.037 0 0 1 60.205 47.803 A 11.051 11.051 0 0 1 63.637 44.639 Q 65.041 43.788 66.812 43.184 A 20.746 20.746 0 0 1 67.48 42.969 Q 72.461 41.455 80.762 41.455 Z M 370.801 41.455 L 381.055 41.455 L 381.055 34.863 Q 381.055 32.502 380.399 30.835 A 6.634 6.634 0 0 0 379.834 29.712 A 6.247 6.247 0 0 0 377.655 27.652 A 8.918 8.918 0 0 0 375.977 26.904 A 14.364 14.364 0 0 0 373.956 26.404 Q 372.893 26.215 371.64 26.12 A 35.885 35.885 0 0 0 368.945 26.025 A 41.006 41.006 0 0 0 366.284 26.106 Q 363.55 26.285 361.67 26.855 Q 358.936 27.686 357.666 29.517 A 6.615 6.615 0 0 0 356.734 31.571 Q 356.491 32.464 356.423 33.522 A 13.252 13.252 0 0 0 356.396 34.375 L 349.609 34.375 A 18.129 18.129 0 0 1 350.072 30.144 A 11.262 11.262 0 0 1 354.346 23.486 Q 358.889 20.114 368.149 19.977 A 53.607 53.607 0 0 1 368.945 19.971 Q 378.403 19.971 383.218 23.24 A 12.388 12.388 0 0 1 383.765 23.633 A 11.701 11.701 0 0 1 388.056 30.339 Q 388.542 32.283 388.572 34.601 A 23.745 23.745 0 0 1 388.574 34.912 L 388.574 60.107 Q 388.574 62.328 388.995 63.49 A 2.838 2.838 0 0 0 389.331 64.16 Q 390.068 65.206 392.124 65.234 A 8.376 8.376 0 0 0 392.236 65.234 A 21.105 21.105 0 0 0 392.606 65.231 Q 393.127 65.222 393.457 65.186 L 393.457 71.143 A 10.391 10.391 0 0 1 392.829 71.331 Q 392.331 71.463 391.919 71.509 A 8.762 8.762 0 0 1 391.554 71.541 Q 391.142 71.569 390.58 71.578 A 34.435 34.435 0 0 1 390.039 71.582 A 10.844 10.844 0 0 1 387.573 71.317 A 7.434 7.434 0 0 1 384.302 69.678 A 6.262 6.262 0 0 1 382.142 65.129 A 8.595 8.595 0 0 1 382.129 64.648 A 14.412 14.412 0 0 1 377.718 68.557 A 18.748 18.748 0 0 1 375.269 69.751 A 23.902 23.902 0 0 1 369.872 71.192 A 32.111 32.111 0 0 1 365.088 71.533 Q 359.29 71.533 355.372 69.617 A 13.553 13.553 0 0 1 352.393 67.651 A 12.63 12.63 0 0 1 348.311 60.442 A 18.987 18.987 0 0 1 347.949 56.641 A 21.65 21.65 0 0 1 348.22 53.107 Q 348.544 51.154 349.254 49.57 A 11.037 11.037 0 0 1 350.244 47.803 A 11.051 11.051 0 0 1 353.676 44.639 Q 355.08 43.788 356.851 43.184 A 20.746 20.746 0 0 1 357.52 42.969 Q 362.5 41.455 370.801 41.455 Z M 550.537 89.404 L 550.537 21.094 L 556.543 21.094 L 557.422 27.686 A 17.073 17.073 0 0 1 560.207 24.244 A 13.728 13.728 0 0 1 563.892 21.753 A 16.864 16.864 0 0 1 567.177 20.667 Q 568.845 20.286 570.824 20.114 A 40.295 40.295 0 0 1 574.316 19.971 Q 579.421 19.971 583.069 21.243 A 15.437 15.437 0 0 1 585.791 22.485 Q 590.088 25 592.065 30.493 A 28.452 28.452 0 0 1 593.231 34.911 Q 593.663 37.226 593.865 39.961 A 70.156 70.156 0 0 1 594.043 45.117 Q 594.043 54.736 592.041 60.498 A 18.99 18.99 0 0 1 590.123 64.523 A 13.647 13.647 0 0 1 585.718 68.896 A 16.321 16.321 0 0 1 581.39 70.699 Q 578.256 71.533 574.219 71.533 A 44.932 44.932 0 0 1 570.391 71.381 Q 568.571 71.225 567.038 70.909 A 17.991 17.991 0 0 1 564.258 70.117 A 13.785 13.785 0 0 1 558.057 65.381 L 558.057 89.404 L 550.537 89.404 Z M 0 70.41 L 0 0.049 L 21.436 0.049 A 94.03 94.03 0 0 1 27.56 0.235 Q 34.034 0.659 38.159 2.051 Q 44.092 4.053 46.631 8.862 A 18.209 18.209 0 0 1 48.076 12.651 Q 49.101 16.468 49.166 21.825 A 60.442 60.442 0 0 1 49.17 22.559 A 40.218 40.218 0 0 1 48.87 27.633 Q 48.257 32.446 46.387 35.693 A 15.023 15.023 0 0 1 40.154 41.564 A 20.208 20.208 0 0 1 37.598 42.676 A 30.77 30.77 0 0 1 32.978 43.899 Q 28.105 44.823 21.449 44.824 A 70.587 70.587 0 0 1 21.436 44.824 L 8.496 44.824 L 8.496 70.41 L 0 70.41 Z M 433.545 70.41 L 433.545 0.049 L 454.98 0.049 A 94.03 94.03 0 0 1 461.105 0.235 Q 467.579 0.659 471.704 2.051 Q 477.637 4.053 480.176 8.862 A 18.209 18.209 0 0 1 481.621 12.651 Q 482.645 16.468 482.71 21.825 A 60.442 60.442 0 0 1 482.715 22.559 A 40.218 40.218 0 0 1 482.415 27.633 Q 481.802 32.446 479.932 35.693 A 15.023 15.023 0 0 1 473.699 41.564 A 20.208 20.208 0 0 1 471.143 42.676 A 30.77 30.77 0 0 1 466.523 43.899 Q 461.65 44.823 454.993 44.824 A 70.587 70.587 0 0 1 454.98 44.824 L 442.041 44.824 L 442.041 70.41 L 433.545 70.41 Z M 230.835 68.945 A 19.053 19.053 0 0 0 234.116 70.268 Q 238.274 71.533 244.043 71.533 Q 249.033 71.533 252.82 70.6 A 20.157 20.157 0 0 0 257.373 68.921 A 14.888 14.888 0 0 0 261.739 65.481 A 17.076 17.076 0 0 0 264.648 60.645 A 26.157 26.157 0 0 0 265.899 56.56 Q 266.435 54.174 266.696 51.336 A 63.304 63.304 0 0 0 266.943 45.557 A 63.65 63.65 0 0 0 266.757 40.545 Q 266.289 34.637 264.648 30.64 A 19.402 19.402 0 0 0 264.254 29.743 A 15.141 15.141 0 0 0 257.373 22.485 Q 252.393 19.922 244.043 19.922 Q 239.135 19.922 235.393 20.837 A 20.179 20.179 0 0 0 230.835 22.51 A 14.755 14.755 0 0 0 226.536 25.871 A 16.81 16.81 0 0 0 223.608 30.713 A 25.94 25.94 0 0 0 222.371 34.766 Q 221.84 37.135 221.582 39.956 A 63.251 63.251 0 0 0 221.338 45.703 Q 221.338 55.078 223.608 60.718 A 19.472 19.472 0 0 0 224.097 61.832 A 15.094 15.094 0 0 0 230.835 68.945 Z M 501.001 68.945 A 19.053 19.053 0 0 0 504.282 70.268 Q 508.44 71.533 514.209 71.533 Q 519.199 71.533 522.986 70.6 A 20.157 20.157 0 0 0 527.539 68.921 A 14.888 14.888 0 0 0 531.905 65.481 A 17.076 17.076 0 0 0 534.814 60.645 A 26.157 26.157 0 0 0 536.065 56.56 Q 536.601 54.174 536.862 51.336 A 63.304 63.304 0 0 0 537.109 45.557 A 63.65 63.65 0 0 0 536.923 40.545 Q 536.455 34.637 534.814 30.64 A 19.402 19.402 0 0 0 534.42 29.743 A 15.141 15.141 0 0 0 527.539 22.485 Q 522.559 19.922 514.209 19.922 Q 509.301 19.922 505.559 20.837 A 20.179 20.179 0 0 0 501.001 22.51 A 14.755 14.755 0 0 0 496.702 25.871 A 16.81 16.81 0 0 0 493.774 30.713 A 25.94 25.94 0 0 0 492.537 34.766 Q 492.006 37.135 491.748 39.956 A 63.251 63.251 0 0 0 491.504 45.703 Q 491.504 55.078 493.774 60.718 A 19.472 19.472 0 0 0 494.263 61.832 A 15.094 15.094 0 0 0 501.001 68.945 Z M 613.306 68.945 A 19.053 19.053 0 0 0 616.587 70.268 Q 620.745 71.533 626.514 71.533 Q 631.504 71.533 635.291 70.6 A 20.157 20.157 0 0 0 639.844 68.921 A 14.888 14.888 0 0 0 644.21 65.481 A 17.076 17.076 0 0 0 647.119 60.645 A 26.157 26.157 0 0 0 648.37 56.56 Q 648.906 54.174 649.167 51.336 A 63.304 63.304 0 0 0 649.414 45.557 A 63.65 63.65 0 0 0 649.228 40.545 Q 648.76 34.637 647.119 30.64 A 19.402 19.402 0 0 0 646.725 29.743 A 15.141 15.141 0 0 0 639.844 22.485 Q 634.863 19.922 626.514 19.922 Q 621.606 19.922 617.864 20.837 A 20.179 20.179 0 0 0 613.306 22.51 A 14.755 14.755 0 0 0 609.007 25.871 A 16.81 16.81 0 0 0 606.079 30.713 A 25.94 25.94 0 0 0 604.842 34.766 Q 604.311 37.135 604.053 39.956 A 63.251 63.251 0 0 0 603.809 45.703 Q 603.809 55.078 606.079 60.718 A 19.472 19.472 0 0 0 606.568 61.832 A 15.094 15.094 0 0 0 613.306 68.945 Z M 280.615 70.41 L 280.615 21.045 L 287.402 21.045 L 287.695 28.711 Q 290.967 24.219 294.727 22.07 A 16.307 16.307 0 0 1 300.998 20.056 A 20.446 20.446 0 0 1 303.369 19.922 L 304.297 19.922 L 304.297 27.393 L 303.223 27.393 Q 297.559 27.393 293.457 29.59 Q 289.355 31.787 287.842 36.328 L 287.842 70.41 L 280.615 70.41 Z M 316.26 70.41 L 316.26 21.045 L 323.047 21.045 L 323.34 28.711 Q 326.611 24.219 330.371 22.07 A 16.307 16.307 0 0 1 336.642 20.056 A 20.446 20.446 0 0 1 339.014 19.922 L 339.941 19.922 L 339.941 27.393 L 338.867 27.393 Q 333.203 27.393 329.102 29.59 Q 325 31.787 323.486 36.328 L 323.486 70.41 L 316.26 70.41 Z M 244.336 65.43 Q 250.146 65.43 253.345 63.623 A 9.235 9.235 0 0 0 256.877 60.008 A 13.229 13.229 0 0 0 257.91 57.617 A 22.181 22.181 0 0 0 258.631 54.659 Q 259.186 51.547 259.265 47.242 A 79.476 79.476 0 0 0 259.277 45.801 A 67.13 67.13 0 0 0 259.146 41.449 Q 258.878 37.333 258.061 34.549 A 17.454 17.454 0 0 0 257.861 33.911 A 12.952 12.952 0 0 0 256.492 31.002 A 9.348 9.348 0 0 0 253.198 27.856 A 12.124 12.124 0 0 0 250.397 26.743 Q 249.069 26.384 247.481 26.205 A 30.728 30.728 0 0 0 244.043 26.025 A 29.812 29.812 0 0 0 240.664 26.204 Q 238.998 26.395 237.62 26.788 A 11.856 11.856 0 0 0 235.01 27.856 A 9.332 9.332 0 0 0 231.506 31.419 A 13.472 13.472 0 0 0 230.396 33.96 Q 229.004 38.232 229.004 45.898 A 65.455 65.455 0 0 0 229.135 50.195 Q 229.404 54.26 230.22 57.011 A 17.124 17.124 0 0 0 230.42 57.642 A 12.606 12.606 0 0 0 231.809 60.542 A 9.29 9.29 0 0 0 235.107 63.623 Q 238.379 65.43 244.336 65.43 Z M 514.502 65.43 Q 520.313 65.43 523.511 63.623 A 9.235 9.235 0 0 0 527.043 60.008 A 13.229 13.229 0 0 0 528.076 57.617 A 22.181 22.181 0 0 0 528.797 54.659 Q 529.352 51.547 529.431 47.242 A 79.476 79.476 0 0 0 529.443 45.801 A 67.13 67.13 0 0 0 529.312 41.449 Q 529.044 37.333 528.227 34.549 A 17.454 17.454 0 0 0 528.027 33.911 A 12.952 12.952 0 0 0 526.658 31.002 A 9.348 9.348 0 0 0 523.364 27.856 A 12.124 12.124 0 0 0 520.563 26.743 Q 519.235 26.384 517.647 26.205 A 30.728 30.728 0 0 0 514.209 26.025 A 29.812 29.812 0 0 0 510.83 26.204 Q 509.164 26.395 507.786 26.788 A 11.856 11.856 0 0 0 505.176 27.856 A 9.332 9.332 0 0 0 501.672 31.419 A 13.472 13.472 0 0 0 500.562 33.96 Q 499.17 38.232 499.17 45.898 A 65.455 65.455 0 0 0 499.301 50.195 Q 499.57 54.26 500.386 57.011 A 17.124 17.124 0 0 0 500.586 57.642 A 12.606 12.606 0 0 0 501.975 60.542 A 9.29 9.29 0 0 0 505.273 63.623 Q 508.545 65.43 514.502 65.43 Z M 626.807 65.43 Q 632.617 65.43 635.815 63.623 A 9.235 9.235 0 0 0 639.348 60.008 A 13.229 13.229 0 0 0 640.381 57.617 A 22.181 22.181 0 0 0 641.102 54.659 Q 641.657 51.547 641.735 47.242 A 79.476 79.476 0 0 0 641.748 45.801 A 67.13 67.13 0 0 0 641.617 41.449 Q 641.348 37.333 640.532 34.549 A 17.454 17.454 0 0 0 640.332 33.911 A 12.952 12.952 0 0 0 638.963 31.002 A 9.348 9.348 0 0 0 635.669 27.856 A 12.124 12.124 0 0 0 632.868 26.743 Q 631.54 26.384 629.951 26.205 A 30.728 30.728 0 0 0 626.514 26.025 A 29.812 29.812 0 0 0 623.135 26.204 Q 621.469 26.395 620.09 26.788 A 11.856 11.856 0 0 0 617.48 27.856 A 9.332 9.332 0 0 0 613.977 31.419 A 13.472 13.472 0 0 0 612.866 33.96 Q 611.475 38.232 611.475 45.898 A 65.455 65.455 0 0 0 611.606 50.195 Q 611.874 54.26 612.691 57.011 A 17.124 17.124 0 0 0 612.891 57.642 A 12.606 12.606 0 0 0 614.28 60.542 A 9.29 9.29 0 0 0 617.578 63.623 Q 620.85 65.43 626.807 65.43 Z M 8.496 37.695 L 21.436 37.695 A 87.617 87.617 0 0 0 25.702 37.599 Q 29.562 37.41 32.195 36.851 A 19.307 19.307 0 0 0 33.691 36.475 A 11.506 11.506 0 0 0 36.374 35.315 A 8.148 8.148 0 0 0 39.453 32.08 Q 40.956 29.206 41.098 23.73 A 45.188 45.188 0 0 0 41.113 22.559 Q 41.113 16.757 39.808 13.528 A 10.066 10.066 0 0 0 39.453 12.744 A 8.495 8.495 0 0 0 35.59 8.963 A 12.107 12.107 0 0 0 33.691 8.203 A 21.667 21.667 0 0 0 30.899 7.561 Q 27.861 7.05 23.494 6.955 A 94.882 94.882 0 0 0 21.436 6.934 L 8.496 6.934 L 8.496 37.695 Z M 442.041 37.695 L 454.98 37.695 A 87.617 87.617 0 0 0 459.247 37.599 Q 463.107 37.41 465.739 36.851 A 19.307 19.307 0 0 0 467.236 36.475 A 11.506 11.506 0 0 0 469.919 35.315 A 8.148 8.148 0 0 0 472.998 32.08 Q 474.501 29.206 474.643 23.73 A 45.188 45.188 0 0 0 474.658 22.559 Q 474.658 16.757 473.353 13.528 A 10.066 10.066 0 0 0 472.998 12.744 A 8.495 8.495 0 0 0 469.135 8.963 A 12.107 12.107 0 0 0 467.236 8.203 A 21.667 21.667 0 0 0 464.444 7.561 Q 461.406 7.05 457.039 6.955 A 94.882 94.882 0 0 0 454.98 6.934 L 442.041 6.934 L 442.041 37.695 Z M 572.412 65.43 A 30.943 30.943 0 0 0 575.405 65.295 Q 578.602 64.983 580.628 63.953 A 8.395 8.395 0 0 0 581.055 63.721 A 7.936 7.936 0 0 0 583.884 60.846 Q 584.671 59.523 585.156 57.764 A 24.859 24.859 0 0 0 585.749 54.88 Q 586.221 51.75 586.308 47.275 A 107.894 107.894 0 0 0 586.328 45.166 A 85.93 85.93 0 0 0 586.237 41.073 Q 586.048 37.126 585.466 34.485 A 18.874 18.874 0 0 0 585.181 33.35 Q 584.18 29.859 581.862 28.187 A 7.32 7.32 0 0 0 581.152 27.734 A 10.354 10.354 0 0 0 578.85 26.819 Q 576.539 26.181 573.217 26.128 A 38.243 38.243 0 0 0 572.607 26.123 Q 566.65 26.123 563.574 27.759 A 8.1 8.1 0 0 0 560.278 31.059 A 11.984 11.984 0 0 0 559.277 33.472 A 22.27 22.27 0 0 0 558.66 36.235 Q 558.057 39.912 558.057 45.508 A 49.256 49.256 0 0 0 558.313 50.717 Q 558.97 56.87 561.304 60.449 Q 564.551 65.43 572.412 65.43 Z M 91.064 55.518 L 91.064 47.021 L 80.713 47.021 A 51.854 51.854 0 0 0 77.507 47.114 Q 74.214 47.319 71.948 47.974 Q 69.43 48.701 67.952 50.07 A 6.482 6.482 0 0 0 67.139 50.977 A 7.201 7.201 0 0 0 66.015 53.338 Q 65.625 54.734 65.625 56.494 A 10.293 10.293 0 0 0 65.999 59.348 A 7.524 7.524 0 0 0 68.555 63.208 Q 70.899 65.103 74.805 65.481 A 21.26 21.26 0 0 0 76.855 65.576 A 28.767 28.767 0 0 0 80.82 65.321 Q 84.843 64.76 87.378 62.964 Q 91.064 60.352 91.064 55.518 Z M 381.104 55.518 L 381.104 47.021 L 370.752 47.021 A 51.854 51.854 0 0 0 367.546 47.114 Q 364.253 47.319 361.987 47.974 Q 359.469 48.701 357.991 50.07 A 6.482 6.482 0 0 0 357.178 50.977 A 7.201 7.201 0 0 0 356.054 53.338 Q 355.664 54.734 355.664 56.494 A 10.293 10.293 0 0 0 356.038 59.348 A 7.524 7.524 0 0 0 358.594 63.208 Q 360.938 65.103 364.844 65.481 A 21.26 21.26 0 0 0 366.895 65.576 A 28.767 28.767 0 0 0 370.859 65.321 Q 374.883 64.76 377.417 62.964 Q 381.104 60.352 381.104 55.518 Z" vector-effect="non-scaling-stroke"/></g></svg>